<svg preserveAspectRatio="none" width="100%" height="100%" overflow="visible" style="display: block;" viewBox="0 0 5594 4689" fill="none" xmlns="http://www.w3.org/2000/svg">
<path id="Union" d="M5319.79 3408C5319.79 3408 5936.76 3916.98 5319.79 4502.2C4702.82 5087.41 1764.09 4071.03 963 4502.2V3408C3596.35 3859.94 4552.41 3860.97 5319.79 3408ZM4356.79 1611C4356.98 1611.15 4973.67 2120.07 4356.79 2705.2C3739.82 3290.41 801.091 2274.03 0 2705.2V1611C2633.35 2062.94 3589.41 2063.97 4356.79 1611ZM1868.5 0C2122.83 0 2329 190.279 2329 425C2329 659.721 2122.83 850 1868.5 850C1614.17 850 1408 659.721 1408 425C1408 190.279 1614.17 0 1868.5 0Z" fill="var(--fill-0, #00AFB9)"/>
</svg>
